<mxfile host="app.diagrams.net" agent="Mozilla/5.0 (Windows NT 10.0; Win64; x64; rv:142.0) Gecko/20100101 Firefox/142.0" version="28.1.1">
  <diagram id="C5RBs43oDa-KdzZeNtuy" name="Snake">
    <mxGraphModel dx="4714" dy="3530" grid="1" gridSize="10" guides="1" tooltips="1" connect="1" arrows="1" fold="1" page="0" pageScale="1" pageWidth="827" pageHeight="1169" math="0" shadow="0">
      <root>
        <mxCell id="WIyWlLk6GJQsqaUBKTNV-0" />
        <mxCell id="WIyWlLk6GJQsqaUBKTNV-1" parent="WIyWlLk6GJQsqaUBKTNV-0" />
        <mxCell id="zkfFHV4jXpPFQw0GAbJ--0" value="Snake" style="swimlane;fontStyle=2;align=center;verticalAlign=top;childLayout=stackLayout;horizontal=1;startSize=26;horizontalStack=0;resizeParent=1;resizeLast=0;collapsible=1;marginBottom=0;rounded=0;shadow=0;strokeWidth=1;" parent="WIyWlLk6GJQsqaUBKTNV-1" vertex="1">
          <mxGeometry x="-970" y="-2710" width="720" height="200" as="geometry">
            <mxRectangle x="230" y="140" width="160" height="26" as="alternateBounds" />
          </mxGeometry>
        </mxCell>
        <mxCell id="zkfFHV4jXpPFQw0GAbJ--3" value="- snakeLength : int = 0&#xa;- snake : tPoint = {7, 7}&#xa;- snakeDirection : int = 0&#xa;- snakeTail : tPoint[256] = {0}&#xa;- snakeDirection : int = 0" style="text;align=left;verticalAlign=top;spacingLeft=4;spacingRight=4;overflow=hidden;rotatable=0;points=[[0,0.5],[1,0.5]];portConstraint=eastwest;rounded=0;shadow=0;html=0;" parent="zkfFHV4jXpPFQw0GAbJ--0" vertex="1">
          <mxGeometry y="26" width="720" height="84" as="geometry" />
        </mxCell>
        <mxCell id="zkfFHV4jXpPFQw0GAbJ--4" value="" style="line;html=1;strokeWidth=1;align=left;verticalAlign=middle;spacingTop=-1;spacingLeft=3;spacingRight=3;rotatable=0;labelPosition=right;points=[];portConstraint=eastwest;" parent="zkfFHV4jXpPFQw0GAbJ--0" vertex="1">
          <mxGeometry y="110" width="720" height="8" as="geometry" />
        </mxCell>
        <mxCell id="zkfFHV4jXpPFQw0GAbJ--5" value="- SnakeSetup(image : uint8_t[16][16], snake : tPoint) : void&#xa;- UpdateSnakeTail(snake : tPoint, snakeTail : tPoint[256], snakeLength : int, image : uint8_t[16][16]) : void&#xa;- SnakeMovement(snakeDirection : int&amp;, snake : *tPoint) : void&#xa;- ChangeSnakeDirection(leftButton : QwiicButton, rightButton : QwiicButton, snakeDirection : int&amp;, tempTime : unsigned long[4]) : void&#xa;" style="text;align=left;verticalAlign=top;spacingLeft=4;spacingRight=4;overflow=hidden;rotatable=0;points=[[0,0.5],[1,0.5]];portConstraint=eastwest;" parent="zkfFHV4jXpPFQw0GAbJ--0" vertex="1">
          <mxGeometry y="118" width="720" height="68" as="geometry" />
        </mxCell>
        <mxCell id="EPb7erDvm0e9K2WXAWxK-14" value="Snake game" style="swimlane;fontStyle=2;align=center;verticalAlign=top;childLayout=stackLayout;horizontal=1;startSize=26;horizontalStack=0;resizeParent=1;resizeLast=0;collapsible=1;marginBottom=0;rounded=0;shadow=0;strokeWidth=1;" parent="WIyWlLk6GJQsqaUBKTNV-1" vertex="1">
          <mxGeometry x="-620" y="-2420" width="730" height="240" as="geometry">
            <mxRectangle x="230" y="140" width="160" height="26" as="alternateBounds" />
          </mxGeometry>
        </mxCell>
        <mxCell id="EPb7erDvm0e9K2WXAWxK-15" value="- gameOver : bool = false&#xa;- playAgainTimer : SimpleSoftTimer(2000)&#xa;- difficulty : int = 1&#xa;+ gameNumber : char" style="text;align=left;verticalAlign=top;spacingLeft=4;spacingRight=4;overflow=hidden;rotatable=0;points=[[0,0.5],[1,0.5]];portConstraint=eastwest;rounded=0;shadow=0;html=0;" parent="EPb7erDvm0e9K2WXAWxK-14" vertex="1">
          <mxGeometry y="26" width="730" height="74" as="geometry" />
        </mxCell>
        <mxCell id="EPb7erDvm0e9K2WXAWxK-16" value="" style="line;html=1;strokeWidth=1;align=left;verticalAlign=middle;spacingTop=-1;spacingLeft=3;spacingRight=3;rotatable=0;labelPosition=right;points=[];portConstraint=eastwest;" parent="EPb7erDvm0e9K2WXAWxK-14" vertex="1">
          <mxGeometry y="100" width="730" height="8" as="geometry" />
        </mxCell>
        <mxCell id="EPb7erDvm0e9K2WXAWxK-17" value="- SnakeTitleScreen(image : uint8_t[16][16]) : void&#xa;- SchweirigkeitsScreen(image : uint8_t[16][16]) : void&#xa;- ChooseDifficulty(image : uint8_t[16][16], buffer : uint8_t[256], leftButton : QwiicButton, rightButton : QwiicButton) : int&#xa;- CheckForGameOver(snake : *tPoint, snakeTail : tPoint[256], snakeLength : int, gameOver : bool&amp;) : void&#xa;- DrawSnakenApple(snake : *tPoint, snakeTail : tPoint[256], image : uint8_t[16][16], buffer : uint8_t[256], snakeLenth : int) : void&#xa;- SnakeGameOverScreen(image : uint8_t[16][16]) : void&#xa;- SnakeStartNewScreen(image : uint8_t[16][16]) : void&#xa;+ PlaySnake(image : uint8_t[16][16], buffer : uint8_t[256], leftButton : QwiicButton, rightButton : QwiicButton) : void" style="text;align=left;verticalAlign=top;spacingLeft=4;spacingRight=4;overflow=hidden;rotatable=0;points=[[0,0.5],[1,0.5]];portConstraint=eastwest;" parent="EPb7erDvm0e9K2WXAWxK-14" vertex="1">
          <mxGeometry y="108" width="730" height="132" as="geometry" />
        </mxCell>
        <mxCell id="EPb7erDvm0e9K2WXAWxK-13" value="" style="edgeStyle=none;curved=1;rounded=0;orthogonalLoop=1;jettySize=auto;html=1;fontSize=12;startSize=8;endSize=8;entryX=0.5;entryY=0;entryDx=0;entryDy=0;exitX=0.5;exitY=1;exitDx=0;exitDy=0;" parent="WIyWlLk6GJQsqaUBKTNV-1" source="zkfFHV4jXpPFQw0GAbJ--0" target="EPb7erDvm0e9K2WXAWxK-14" edge="1">
          <mxGeometry relative="1" as="geometry">
            <mxPoint x="-390" y="-2141.0023529411765" as="sourcePoint" />
            <mxPoint x="-239.26999999999998" y="-2140.916" as="targetPoint" />
          </mxGeometry>
        </mxCell>
        <mxCell id="EPb7erDvm0e9K2WXAWxK-24" value="Apple" style="swimlane;fontStyle=2;align=center;verticalAlign=top;childLayout=stackLayout;horizontal=1;startSize=26;horizontalStack=0;resizeParent=1;resizeLast=0;collapsible=1;marginBottom=0;rounded=0;shadow=0;strokeWidth=1;" parent="WIyWlLk6GJQsqaUBKTNV-1" vertex="1">
          <mxGeometry x="-210" y="-2690" width="510" height="110" as="geometry">
            <mxRectangle x="230" y="140" width="160" height="26" as="alternateBounds" />
          </mxGeometry>
        </mxCell>
        <mxCell id="EPb7erDvm0e9K2WXAWxK-25" value="- apple : tPoint = {0}" style="text;align=left;verticalAlign=top;spacingLeft=4;spacingRight=4;overflow=hidden;rotatable=0;points=[[0,0.5],[1,0.5]];portConstraint=eastwest;rounded=0;shadow=0;html=0;" parent="EPb7erDvm0e9K2WXAWxK-24" vertex="1">
          <mxGeometry y="26" width="510" height="34" as="geometry" />
        </mxCell>
        <mxCell id="EPb7erDvm0e9K2WXAWxK-26" value="" style="line;html=1;strokeWidth=1;align=left;verticalAlign=middle;spacingTop=-1;spacingLeft=3;spacingRight=3;rotatable=0;labelPosition=right;points=[];portConstraint=eastwest;" parent="EPb7erDvm0e9K2WXAWxK-24" vertex="1">
          <mxGeometry y="60" width="510" height="8" as="geometry" />
        </mxCell>
        <mxCell id="EPb7erDvm0e9K2WXAWxK-27" value="- PlantApple(apple : *tPoint, snake : *tPoint, snakeTail : tPoint[256], snakeLength : int) : void" style="text;align=left;verticalAlign=top;spacingLeft=4;spacingRight=4;overflow=hidden;rotatable=0;points=[[0,0.5],[1,0.5]];portConstraint=eastwest;" parent="EPb7erDvm0e9K2WXAWxK-24" vertex="1">
          <mxGeometry y="68" width="510" height="42" as="geometry" />
        </mxCell>
        <mxCell id="EPb7erDvm0e9K2WXAWxK-30" value="EchoPlay" style="swimlane;fontStyle=2;align=center;verticalAlign=top;childLayout=stackLayout;horizontal=1;startSize=26;horizontalStack=0;resizeParent=1;resizeLast=0;collapsible=1;marginBottom=0;rounded=0;shadow=0;strokeWidth=1;" parent="WIyWlLk6GJQsqaUBKTNV-1" vertex="1">
          <mxGeometry x="-620" y="-1250" width="730" height="230" as="geometry">
            <mxRectangle x="230" y="140" width="160" height="26" as="alternateBounds" />
          </mxGeometry>
        </mxCell>
        <mxCell id="EPb7erDvm0e9K2WXAWxK-31" value="+ currentGame : char" style="text;align=left;verticalAlign=top;spacingLeft=4;spacingRight=4;overflow=hidden;rotatable=0;points=[[0,0.5],[1,0.5]];portConstraint=eastwest;rounded=0;shadow=0;html=0;" parent="EPb7erDvm0e9K2WXAWxK-30" vertex="1">
          <mxGeometry y="26" width="730" height="44" as="geometry" />
        </mxCell>
        <mxCell id="EPb7erDvm0e9K2WXAWxK-32" value="" style="line;html=1;strokeWidth=1;align=left;verticalAlign=middle;spacingTop=-1;spacingLeft=3;spacingRight=3;rotatable=0;labelPosition=right;points=[];portConstraint=eastwest;" parent="EPb7erDvm0e9K2WXAWxK-30" vertex="1">
          <mxGeometry y="70" width="730" height="8" as="geometry" />
        </mxCell>
        <mxCell id="EPb7erDvm0e9K2WXAWxK-33" value="+ tPoint : struct {posX, posY}&#xa;+ StartGame(gameNumber : char) : void&#xa;+ EndGame() : void&#xa;+ NextGame()&#xa;+ PreparePins&#xa;+ WaitForButtonPress(leftButton : QwiicButton, rightButton : Qwiicbutton) : int&#xa;+ LEDOnPress(leftButton : Qwiicbutton, rightButton : Qwiicbutton) : void&#xa;&#xa;" style="text;align=left;verticalAlign=top;spacingLeft=4;spacingRight=4;overflow=hidden;rotatable=0;points=[[0,0.5],[1,0.5]];portConstraint=eastwest;" parent="EPb7erDvm0e9K2WXAWxK-30" vertex="1">
          <mxGeometry y="78" width="730" height="152" as="geometry" />
        </mxCell>
        <mxCell id="EPb7erDvm0e9K2WXAWxK-44" value="" style="edgeStyle=none;curved=1;rounded=0;orthogonalLoop=1;jettySize=auto;html=1;fontSize=12;startSize=8;endSize=8;entryX=0.786;entryY=1.022;entryDx=0;entryDy=0;entryPerimeter=0;exitX=0.5;exitY=0;exitDx=0;exitDy=0;" parent="WIyWlLk6GJQsqaUBKTNV-1" source="EPb7erDvm0e9K2WXAWxK-41" target="EPb7erDvm0e9K2WXAWxK-33" edge="1">
          <mxGeometry relative="1" as="geometry">
            <mxPoint x="99.99999999999955" y="-1114.883181818182" as="sourcePoint" />
            <mxPoint x="105.72999999999956" y="-1107.3880000000001" as="targetPoint" />
          </mxGeometry>
        </mxCell>
        <mxCell id="EPb7erDvm0e9K2WXAWxK-58" value="" style="edgeStyle=none;curved=1;rounded=0;orthogonalLoop=1;jettySize=auto;html=1;fontSize=12;startSize=8;endSize=8;exitX=0.5;exitY=0;exitDx=0;exitDy=0;" parent="WIyWlLk6GJQsqaUBKTNV-1" source="EPb7erDvm0e9K2WXAWxK-30" target="EPb7erDvm0e9K2WXAWxK-55" edge="1">
          <mxGeometry relative="1" as="geometry">
            <mxPoint x="-260" y="-840" as="sourcePoint" />
          </mxGeometry>
        </mxCell>
        <mxCell id="EPb7erDvm0e9K2WXAWxK-41" value="Pin" style="swimlane;fontStyle=2;align=center;verticalAlign=top;childLayout=stackLayout;horizontal=1;startSize=26;horizontalStack=0;resizeParent=1;resizeLast=0;collapsible=1;marginBottom=0;rounded=0;shadow=0;strokeWidth=1;" parent="WIyWlLk6GJQsqaUBKTNV-1" vertex="1">
          <mxGeometry x="-130" y="-920" width="170" height="110" as="geometry">
            <mxRectangle x="230" y="140" width="160" height="26" as="alternateBounds" />
          </mxGeometry>
        </mxCell>
        <mxCell id="EPb7erDvm0e9K2WXAWxK-42" value="pinNumber : char {readOnly}" style="text;align=left;verticalAlign=top;spacingLeft=4;spacingRight=4;overflow=hidden;rotatable=0;points=[[0,0.5],[1,0.5]];portConstraint=eastwest;rounded=0;shadow=0;html=0;" parent="EPb7erDvm0e9K2WXAWxK-41" vertex="1">
          <mxGeometry y="26" width="170" height="34" as="geometry" />
        </mxCell>
        <mxCell id="EPb7erDvm0e9K2WXAWxK-43" value="" style="line;html=1;strokeWidth=1;align=left;verticalAlign=middle;spacingTop=-1;spacingLeft=3;spacingRight=3;rotatable=0;labelPosition=right;points=[];portConstraint=eastwest;" parent="EPb7erDvm0e9K2WXAWxK-41" vertex="1">
          <mxGeometry y="60" width="170" height="8" as="geometry" />
        </mxCell>
        <mxCell id="EPb7erDvm0e9K2WXAWxK-46" value="- PreparePin() : void" style="text;align=left;verticalAlign=top;spacingLeft=4;spacingRight=4;overflow=hidden;rotatable=0;points=[[0,0.5],[1,0.5]];portConstraint=eastwest;rounded=0;shadow=0;html=0;" parent="EPb7erDvm0e9K2WXAWxK-41" vertex="1">
          <mxGeometry y="68" width="170" height="42" as="geometry" />
        </mxCell>
        <mxCell id="EPb7erDvm0e9K2WXAWxK-64" value="" style="edgeStyle=none;curved=1;rounded=0;orthogonalLoop=1;jettySize=auto;html=1;fontSize=12;startSize=8;endSize=8;exitX=0.5;exitY=0;exitDx=0;exitDy=0;entryX=0.5;entryY=1;entryDx=0;entryDy=0;" parent="WIyWlLk6GJQsqaUBKTNV-1" source="EPb7erDvm0e9K2WXAWxK-55" target="EPb7erDvm0e9K2WXAWxK-60" edge="1">
          <mxGeometry relative="1" as="geometry" />
        </mxCell>
        <mxCell id="EPb7erDvm0e9K2WXAWxK-55" value="Game" style="swimlane;fontStyle=2;align=center;verticalAlign=top;childLayout=stackLayout;horizontal=1;startSize=26;horizontalStack=0;resizeParent=1;resizeLast=0;collapsible=1;marginBottom=0;rounded=0;shadow=0;strokeWidth=1;" parent="WIyWlLk6GJQsqaUBKTNV-1" vertex="1">
          <mxGeometry x="-620" y="-1610" width="730" height="210" as="geometry">
            <mxRectangle x="230" y="140" width="160" height="26" as="alternateBounds" />
          </mxGeometry>
        </mxCell>
        <mxCell id="EPb7erDvm0e9K2WXAWxK-56" value="- gameNumber : char&#xa;" style="text;align=left;verticalAlign=top;spacingLeft=4;spacingRight=4;overflow=hidden;rotatable=0;points=[[0,0.5],[1,0.5]];portConstraint=eastwest;rounded=0;shadow=0;html=0;" parent="EPb7erDvm0e9K2WXAWxK-55" vertex="1">
          <mxGeometry y="26" width="730" height="84" as="geometry" />
        </mxCell>
        <mxCell id="EPb7erDvm0e9K2WXAWxK-57" value="" style="line;html=1;strokeWidth=1;align=left;verticalAlign=middle;spacingTop=-1;spacingLeft=3;spacingRight=3;rotatable=0;labelPosition=right;points=[];portConstraint=eastwest;" parent="EPb7erDvm0e9K2WXAWxK-55" vertex="1">
          <mxGeometry y="110" width="730" height="8" as="geometry" />
        </mxCell>
        <mxCell id="EWlRzlxdhO2FhHiECtLa-30" value="start() : virtual&#xa;end() : virtual&#xa;&#xa;" style="text;align=left;verticalAlign=top;spacingLeft=4;spacingRight=4;overflow=hidden;rotatable=0;points=[[0,0.5],[1,0.5]];portConstraint=eastwest;rounded=0;shadow=0;html=0;" vertex="1" parent="EPb7erDvm0e9K2WXAWxK-55">
          <mxGeometry y="118" width="730" height="84" as="geometry" />
        </mxCell>
        <mxCell id="EPb7erDvm0e9K2WXAWxK-28" value="" style="edgeStyle=none;curved=1;rounded=0;orthogonalLoop=1;jettySize=auto;html=1;fontSize=12;startSize=8;endSize=8;entryX=0.5;entryY=0;entryDx=0;entryDy=0;exitX=0.506;exitY=1;exitDx=0;exitDy=0;exitPerimeter=0;" parent="WIyWlLk6GJQsqaUBKTNV-1" source="EPb7erDvm0e9K2WXAWxK-27" target="EPb7erDvm0e9K2WXAWxK-14" edge="1">
          <mxGeometry relative="1" as="geometry">
            <mxPoint x="-140.00418604651145" y="-2174" as="sourcePoint" />
            <mxPoint x="-74.8879069767438" y="-2124" as="targetPoint" />
          </mxGeometry>
        </mxCell>
        <mxCell id="EPb7erDvm0e9K2WXAWxK-60" value="Car Jump" style="swimlane;fontStyle=2;align=center;verticalAlign=top;childLayout=stackLayout;horizontal=1;startSize=26;horizontalStack=0;resizeParent=1;resizeLast=0;collapsible=1;marginBottom=0;rounded=0;shadow=0;strokeWidth=1;" parent="WIyWlLk6GJQsqaUBKTNV-1" vertex="1">
          <mxGeometry x="410" y="-2440" width="730" height="210" as="geometry">
            <mxRectangle x="230" y="140" width="160" height="26" as="alternateBounds" />
          </mxGeometry>
        </mxCell>
        <mxCell id="EPb7erDvm0e9K2WXAWxK-61" value="..." style="text;align=left;verticalAlign=top;spacingLeft=4;spacingRight=4;overflow=hidden;rotatable=0;points=[[0,0.5],[1,0.5]];portConstraint=eastwest;rounded=0;shadow=0;html=0;" parent="EPb7erDvm0e9K2WXAWxK-60" vertex="1">
          <mxGeometry y="26" width="730" height="84" as="geometry" />
        </mxCell>
        <mxCell id="EPb7erDvm0e9K2WXAWxK-62" value="" style="line;html=1;strokeWidth=1;align=left;verticalAlign=middle;spacingTop=-1;spacingLeft=3;spacingRight=3;rotatable=0;labelPosition=right;points=[];portConstraint=eastwest;" parent="EPb7erDvm0e9K2WXAWxK-60" vertex="1">
          <mxGeometry y="110" width="730" height="8" as="geometry" />
        </mxCell>
        <mxCell id="EPb7erDvm0e9K2WXAWxK-63" value="..." style="text;align=left;verticalAlign=top;spacingLeft=4;spacingRight=4;overflow=hidden;rotatable=0;points=[[0,0.5],[1,0.5]];portConstraint=eastwest;rounded=0;shadow=0;html=0;" parent="EPb7erDvm0e9K2WXAWxK-60" vertex="1">
          <mxGeometry y="118" width="730" height="84" as="geometry" />
        </mxCell>
        <mxCell id="EPb7erDvm0e9K2WXAWxK-65" value="" style="edgeStyle=none;curved=1;rounded=0;orthogonalLoop=1;jettySize=auto;html=1;fontSize=12;startSize=8;endSize=8;entryX=0.493;entryY=0.984;entryDx=0;entryDy=0;entryPerimeter=0;" parent="WIyWlLk6GJQsqaUBKTNV-1" target="EPb7erDvm0e9K2WXAWxK-17" edge="1">
          <mxGeometry relative="1" as="geometry">
            <mxPoint x="-255" y="-1610" as="sourcePoint" />
            <mxPoint x="340" y="-220" as="targetPoint" />
          </mxGeometry>
        </mxCell>
        <mxCell id="EPb7erDvm0e9K2WXAWxK-70" value="" style="edgeStyle=none;curved=1;rounded=0;orthogonalLoop=1;jettySize=auto;html=1;fontSize=12;startSize=8;endSize=8;entryX=0.5;entryY=1;entryDx=0;entryDy=0;" parent="WIyWlLk6GJQsqaUBKTNV-1" target="EPb7erDvm0e9K2WXAWxK-71" edge="1">
          <mxGeometry relative="1" as="geometry">
            <mxPoint x="-255" y="-1610" as="sourcePoint" />
            <mxPoint x="-1479.402985074627" y="-320" as="targetPoint" />
          </mxGeometry>
        </mxCell>
        <mxCell id="EPb7erDvm0e9K2WXAWxK-71" value="Connect 4" style="swimlane;fontStyle=2;align=center;verticalAlign=top;childLayout=stackLayout;horizontal=1;startSize=26;horizontalStack=0;resizeParent=1;resizeLast=0;collapsible=1;marginBottom=0;rounded=0;shadow=0;strokeWidth=1;" parent="WIyWlLk6GJQsqaUBKTNV-1" vertex="1">
          <mxGeometry x="-1790" y="-2440" width="730" height="210" as="geometry">
            <mxRectangle x="230" y="140" width="160" height="26" as="alternateBounds" />
          </mxGeometry>
        </mxCell>
        <mxCell id="EPb7erDvm0e9K2WXAWxK-72" value="..." style="text;align=left;verticalAlign=top;spacingLeft=4;spacingRight=4;overflow=hidden;rotatable=0;points=[[0,0.5],[1,0.5]];portConstraint=eastwest;rounded=0;shadow=0;html=0;" parent="EPb7erDvm0e9K2WXAWxK-71" vertex="1">
          <mxGeometry y="26" width="730" height="84" as="geometry" />
        </mxCell>
        <mxCell id="EPb7erDvm0e9K2WXAWxK-73" value="" style="line;html=1;strokeWidth=1;align=left;verticalAlign=middle;spacingTop=-1;spacingLeft=3;spacingRight=3;rotatable=0;labelPosition=right;points=[];portConstraint=eastwest;" parent="EPb7erDvm0e9K2WXAWxK-71" vertex="1">
          <mxGeometry y="110" width="730" height="8" as="geometry" />
        </mxCell>
        <mxCell id="EPb7erDvm0e9K2WXAWxK-74" value="..." style="text;align=left;verticalAlign=top;spacingLeft=4;spacingRight=4;overflow=hidden;rotatable=0;points=[[0,0.5],[1,0.5]];portConstraint=eastwest;rounded=0;shadow=0;html=0;" parent="EPb7erDvm0e9K2WXAWxK-71" vertex="1">
          <mxGeometry y="118" width="730" height="84" as="geometry" />
        </mxCell>
        <mxCell id="EPb7erDvm0e9K2WXAWxK-75" value="" style="edgeStyle=none;curved=1;rounded=0;orthogonalLoop=1;jettySize=auto;html=1;fontSize=12;startSize=8;endSize=8;entryX=0.5;entryY=1;entryDx=0;entryDy=0;" parent="WIyWlLk6GJQsqaUBKTNV-1" target="EPb7erDvm0e9K2WXAWxK-76" edge="1">
          <mxGeometry relative="1" as="geometry">
            <mxPoint x="-250" y="-1610" as="sourcePoint" />
          </mxGeometry>
        </mxCell>
        <mxCell id="EPb7erDvm0e9K2WXAWxK-76" value="Clock" style="swimlane;fontStyle=2;align=center;verticalAlign=top;childLayout=stackLayout;horizontal=1;startSize=26;horizontalStack=0;resizeParent=1;resizeLast=0;collapsible=1;marginBottom=0;rounded=0;shadow=0;strokeWidth=1;" parent="WIyWlLk6GJQsqaUBKTNV-1" vertex="1">
          <mxGeometry x="1430" y="-2440" width="730" height="210" as="geometry">
            <mxRectangle x="230" y="140" width="160" height="26" as="alternateBounds" />
          </mxGeometry>
        </mxCell>
        <mxCell id="EPb7erDvm0e9K2WXAWxK-77" value="..." style="text;align=left;verticalAlign=top;spacingLeft=4;spacingRight=4;overflow=hidden;rotatable=0;points=[[0,0.5],[1,0.5]];portConstraint=eastwest;rounded=0;shadow=0;html=0;" parent="EPb7erDvm0e9K2WXAWxK-76" vertex="1">
          <mxGeometry y="26" width="730" height="84" as="geometry" />
        </mxCell>
        <mxCell id="EPb7erDvm0e9K2WXAWxK-78" value="" style="line;html=1;strokeWidth=1;align=left;verticalAlign=middle;spacingTop=-1;spacingLeft=3;spacingRight=3;rotatable=0;labelPosition=right;points=[];portConstraint=eastwest;" parent="EPb7erDvm0e9K2WXAWxK-76" vertex="1">
          <mxGeometry y="110" width="730" height="8" as="geometry" />
        </mxCell>
        <mxCell id="EPb7erDvm0e9K2WXAWxK-79" value="..." style="text;align=left;verticalAlign=top;spacingLeft=4;spacingRight=4;overflow=hidden;rotatable=0;points=[[0,0.5],[1,0.5]];portConstraint=eastwest;rounded=0;shadow=0;html=0;" parent="EPb7erDvm0e9K2WXAWxK-76" vertex="1">
          <mxGeometry y="118" width="730" height="84" as="geometry" />
        </mxCell>
        <mxCell id="EPb7erDvm0e9K2WXAWxK-85" value="" style="edgeStyle=none;curved=1;rounded=0;orthogonalLoop=1;jettySize=auto;html=1;fontSize=12;startSize=8;endSize=8;entryX=0.5;entryY=1;entryDx=0;entryDy=0;exitX=0.5;exitY=0;exitDx=0;exitDy=0;" parent="WIyWlLk6GJQsqaUBKTNV-1" target="EPb7erDvm0e9K2WXAWxK-86" edge="1" source="EPb7erDvm0e9K2WXAWxK-55">
          <mxGeometry relative="1" as="geometry">
            <mxPoint x="-260" y="-570" as="sourcePoint" />
            <mxPoint x="-2559.402985074627" y="-320" as="targetPoint" />
          </mxGeometry>
        </mxCell>
        <mxCell id="EPb7erDvm0e9K2WXAWxK-86" value="Box Connector" style="swimlane;fontStyle=2;align=center;verticalAlign=top;childLayout=stackLayout;horizontal=1;startSize=26;horizontalStack=0;resizeParent=1;resizeLast=0;collapsible=1;marginBottom=0;rounded=0;shadow=0;strokeWidth=1;" parent="WIyWlLk6GJQsqaUBKTNV-1" vertex="1">
          <mxGeometry x="-2870" y="-2440" width="730" height="210" as="geometry">
            <mxRectangle x="230" y="140" width="160" height="26" as="alternateBounds" />
          </mxGeometry>
        </mxCell>
        <mxCell id="EPb7erDvm0e9K2WXAWxK-87" value="..." style="text;align=left;verticalAlign=top;spacingLeft=4;spacingRight=4;overflow=hidden;rotatable=0;points=[[0,0.5],[1,0.5]];portConstraint=eastwest;rounded=0;shadow=0;html=0;" parent="EPb7erDvm0e9K2WXAWxK-86" vertex="1">
          <mxGeometry y="26" width="730" height="84" as="geometry" />
        </mxCell>
        <mxCell id="EPb7erDvm0e9K2WXAWxK-88" value="" style="line;html=1;strokeWidth=1;align=left;verticalAlign=middle;spacingTop=-1;spacingLeft=3;spacingRight=3;rotatable=0;labelPosition=right;points=[];portConstraint=eastwest;" parent="EPb7erDvm0e9K2WXAWxK-86" vertex="1">
          <mxGeometry y="110" width="730" height="8" as="geometry" />
        </mxCell>
        <mxCell id="EPb7erDvm0e9K2WXAWxK-89" value="..." style="text;align=left;verticalAlign=top;spacingLeft=4;spacingRight=4;overflow=hidden;rotatable=0;points=[[0,0.5],[1,0.5]];portConstraint=eastwest;rounded=0;shadow=0;html=0;" parent="EPb7erDvm0e9K2WXAWxK-86" vertex="1">
          <mxGeometry y="118" width="730" height="84" as="geometry" />
        </mxCell>
        <mxCell id="EWlRzlxdhO2FhHiECtLa-0" value="Screen" style="swimlane;fontStyle=2;align=center;verticalAlign=top;childLayout=stackLayout;horizontal=1;startSize=26;horizontalStack=0;resizeParent=1;resizeLast=0;collapsible=1;marginBottom=0;rounded=0;shadow=0;strokeWidth=1;" vertex="1" parent="WIyWlLk6GJQsqaUBKTNV-1">
          <mxGeometry x="-680" y="-920" width="410" height="170" as="geometry">
            <mxRectangle x="230" y="140" width="160" height="26" as="alternateBounds" />
          </mxGeometry>
        </mxCell>
        <mxCell id="EWlRzlxdhO2FhHiECtLa-1" value="image : uint8_t[16][16]&#xa;buffer : uint8_t[256]&#xa;TranslationTable : uint8_t[16][16] {readOnly}" style="text;align=left;verticalAlign=top;spacingLeft=4;spacingRight=4;overflow=hidden;rotatable=0;points=[[0,0.5],[1,0.5]];portConstraint=eastwest;rounded=0;shadow=0;html=0;" vertex="1" parent="EWlRzlxdhO2FhHiECtLa-0">
          <mxGeometry y="26" width="410" height="64" as="geometry" />
        </mxCell>
        <mxCell id="EWlRzlxdhO2FhHiECtLa-2" value="" style="line;html=1;strokeWidth=1;align=left;verticalAlign=middle;spacingTop=-1;spacingLeft=3;spacingRight=3;rotatable=0;labelPosition=right;points=[];portConstraint=eastwest;" vertex="1" parent="EWlRzlxdhO2FhHiECtLa-0">
          <mxGeometry y="90" width="410" height="8" as="geometry" />
        </mxCell>
        <mxCell id="EWlRzlxdhO2FhHiECtLa-3" value="+ DrawImage(image : uint8_t[16][16], newImage : uint8_t[16][16]) : void&#xa;+ EmptyScreen(image : uint8_t[16][16]) : void&#xa;+ UpdateScreen(buffer : uint8_t[256], image : uint8_t[16][16]) : void&#xa;+ ImagePrint(image : uint8_t[16][16]) : void" style="text;align=left;verticalAlign=top;spacingLeft=4;spacingRight=4;overflow=hidden;rotatable=0;points=[[0,0.5],[1,0.5]];portConstraint=eastwest;" vertex="1" parent="EWlRzlxdhO2FhHiECtLa-0">
          <mxGeometry y="98" width="410" height="72" as="geometry" />
        </mxCell>
        <mxCell id="EWlRzlxdhO2FhHiECtLa-10" value="EchoButton" style="swimlane;fontStyle=2;align=center;verticalAlign=top;childLayout=stackLayout;horizontal=1;startSize=26;horizontalStack=0;resizeParent=1;resizeLast=0;collapsible=1;marginBottom=0;rounded=0;shadow=0;strokeWidth=1;" vertex="1" parent="WIyWlLk6GJQsqaUBKTNV-1">
          <mxGeometry x="-1220" y="-1300" width="430" height="130" as="geometry">
            <mxRectangle x="230" y="140" width="160" height="26" as="alternateBounds" />
          </mxGeometry>
        </mxCell>
        <mxCell id="EWlRzlxdhO2FhHiECtLa-11" value="pinNum&#xa;" style="text;align=left;verticalAlign=top;spacingLeft=4;spacingRight=4;overflow=hidden;rotatable=0;points=[[0,0.5],[1,0.5]];portConstraint=eastwest;rounded=0;shadow=0;html=0;" vertex="1" parent="EWlRzlxdhO2FhHiECtLa-10">
          <mxGeometry y="26" width="430" height="34" as="geometry" />
        </mxCell>
        <mxCell id="EWlRzlxdhO2FhHiECtLa-12" value="" style="line;html=1;strokeWidth=1;align=left;verticalAlign=middle;spacingTop=-1;spacingLeft=3;spacingRight=3;rotatable=0;labelPosition=right;points=[];portConstraint=eastwest;" vertex="1" parent="EWlRzlxdhO2FhHiECtLa-10">
          <mxGeometry y="60" width="430" height="8" as="geometry" />
        </mxCell>
        <mxCell id="EWlRzlxdhO2FhHiECtLa-34" value="isPressed() : bool&#xa;" style="text;align=left;verticalAlign=top;spacingLeft=4;spacingRight=4;overflow=hidden;rotatable=0;points=[[0,0.5],[1,0.5]];portConstraint=eastwest;rounded=0;shadow=0;html=0;" vertex="1" parent="EWlRzlxdhO2FhHiECtLa-10">
          <mxGeometry y="68" width="430" height="62" as="geometry" />
        </mxCell>
        <mxCell id="EWlRzlxdhO2FhHiECtLa-14" style="edgeStyle=none;curved=1;rounded=0;orthogonalLoop=1;jettySize=auto;html=1;exitX=1;exitY=0.5;exitDx=0;exitDy=0;entryX=-0.001;entryY=0.368;entryDx=0;entryDy=0;entryPerimeter=0;fontSize=12;startSize=8;endSize=8;" edge="1" parent="WIyWlLk6GJQsqaUBKTNV-1" target="EPb7erDvm0e9K2WXAWxK-33">
          <mxGeometry relative="1" as="geometry">
            <mxPoint x="-790" y="-1191" as="sourcePoint" />
          </mxGeometry>
        </mxCell>
        <mxCell id="EWlRzlxdhO2FhHiECtLa-15" value="Qwiicbutton" style="swimlane;fontStyle=2;align=center;verticalAlign=top;childLayout=stackLayout;horizontal=1;startSize=26;horizontalStack=0;resizeParent=1;resizeLast=0;collapsible=1;marginBottom=0;rounded=0;shadow=0;strokeWidth=1;" vertex="1" parent="WIyWlLk6GJQsqaUBKTNV-1">
          <mxGeometry x="-1660" y="-1250" width="390" height="220" as="geometry">
            <mxRectangle x="230" y="140" width="160" height="26" as="alternateBounds" />
          </mxGeometry>
        </mxCell>
        <mxCell id="EWlRzlxdhO2FhHiECtLa-16" value="- _deviceAddress : uint8_t&#xa;- wirePort : TwoWire" style="text;align=left;verticalAlign=top;spacingLeft=4;spacingRight=4;overflow=hidden;rotatable=0;points=[[0,0.5],[1,0.5]];portConstraint=eastwest;rounded=0;shadow=0;html=0;" vertex="1" parent="EWlRzlxdhO2FhHiECtLa-15">
          <mxGeometry y="26" width="390" height="44" as="geometry" />
        </mxCell>
        <mxCell id="EWlRzlxdhO2FhHiECtLa-17" value="" style="line;html=1;strokeWidth=1;align=left;verticalAlign=middle;spacingTop=-1;spacingLeft=3;spacingRight=3;rotatable=0;labelPosition=right;points=[];portConstraint=eastwest;" vertex="1" parent="EWlRzlxdhO2FhHiECtLa-15">
          <mxGeometry y="70" width="390" height="8" as="geometry" />
        </mxCell>
        <mxCell id="EWlRzlxdhO2FhHiECtLa-18" value="+ begin(adress : uint8_t = 0x6F, wirePort : &amp;TwoWire = Wire) : bool&#xa;+ isPressed() : bool&#xa;+ hasBeenClicked() : bool&#xa;+ clearEventBits() : uint8_t&#xa;+ isPressedQueueFull() : bool&#xa;+ isPressedQueueEmpty() : bool&#xa;+ popPressedQueue() : unsigned long&#xa;+ LEDon(brightness : uint8_t = 255) : bool&#xa;+ LEDoff() : bool&#xa;" style="text;align=left;verticalAlign=top;spacingLeft=4;spacingRight=4;overflow=hidden;rotatable=0;points=[[0,0.5],[1,0.5]];portConstraint=eastwest;" vertex="1" parent="EWlRzlxdhO2FhHiECtLa-15">
          <mxGeometry y="78" width="390" height="142" as="geometry" />
        </mxCell>
        <mxCell id="EWlRzlxdhO2FhHiECtLa-19" style="edgeStyle=none;curved=1;rounded=0;orthogonalLoop=1;jettySize=auto;html=1;exitX=1;exitY=0.5;exitDx=0;exitDy=0;entryX=0;entryY=0.5;entryDx=0;entryDy=0;fontSize=12;startSize=8;endSize=8;" edge="1" parent="WIyWlLk6GJQsqaUBKTNV-1" source="EWlRzlxdhO2FhHiECtLa-18" target="EPb7erDvm0e9K2WXAWxK-33">
          <mxGeometry relative="1" as="geometry" />
        </mxCell>
        <mxCell id="EWlRzlxdhO2FhHiECtLa-21" style="edgeStyle=none;curved=1;rounded=0;orthogonalLoop=1;jettySize=auto;html=1;exitX=0.5;exitY=0;exitDx=0;exitDy=0;entryX=0.198;entryY=1.014;entryDx=0;entryDy=0;entryPerimeter=0;fontSize=12;startSize=8;endSize=8;" edge="1" parent="WIyWlLk6GJQsqaUBKTNV-1" source="EWlRzlxdhO2FhHiECtLa-0" target="EPb7erDvm0e9K2WXAWxK-33">
          <mxGeometry relative="1" as="geometry" />
        </mxCell>
        <mxCell id="EWlRzlxdhO2FhHiECtLa-22" value="SimpleSoftTimer" style="swimlane;fontStyle=2;align=center;verticalAlign=top;childLayout=stackLayout;horizontal=1;startSize=26;horizontalStack=0;resizeParent=1;resizeLast=0;collapsible=1;marginBottom=0;rounded=0;shadow=0;strokeWidth=1;" vertex="1" parent="WIyWlLk6GJQsqaUBKTNV-1">
          <mxGeometry x="210" y="-1170" width="270" height="140" as="geometry">
            <mxRectangle x="230" y="140" width="160" height="26" as="alternateBounds" />
          </mxGeometry>
        </mxCell>
        <mxCell id="EWlRzlxdhO2FhHiECtLa-23" value="- m_timeout : tSimpleSoftTimerTime&#xa;- m_time_start : tSimpleSoftTimerTime" style="text;align=left;verticalAlign=top;spacingLeft=4;spacingRight=4;overflow=hidden;rotatable=0;points=[[0,0.5],[1,0.5]];portConstraint=eastwest;rounded=0;shadow=0;html=0;" vertex="1" parent="EWlRzlxdhO2FhHiECtLa-22">
          <mxGeometry y="26" width="270" height="44" as="geometry" />
        </mxCell>
        <mxCell id="EWlRzlxdhO2FhHiECtLa-24" value="" style="line;html=1;strokeWidth=1;align=left;verticalAlign=middle;spacingTop=-1;spacingLeft=3;spacingRight=3;rotatable=0;labelPosition=right;points=[];portConstraint=eastwest;" vertex="1" parent="EWlRzlxdhO2FhHiECtLa-22">
          <mxGeometry y="70" width="270" height="8" as="geometry" />
        </mxCell>
        <mxCell id="EWlRzlxdhO2FhHiECtLa-25" value="+ start(timeout : tSimpleSoftTimerTime) : void&#xa;+ restart() : void&#xa;+ isTimeout() : bool" style="text;align=left;verticalAlign=top;spacingLeft=4;spacingRight=4;overflow=hidden;rotatable=0;points=[[0,0.5],[1,0.5]];portConstraint=eastwest;" vertex="1" parent="EWlRzlxdhO2FhHiECtLa-22">
          <mxGeometry y="78" width="270" height="62" as="geometry" />
        </mxCell>
        <mxCell id="EWlRzlxdhO2FhHiECtLa-26" style="edgeStyle=none;curved=1;rounded=0;orthogonalLoop=1;jettySize=auto;html=1;exitX=0.005;exitY=0.455;exitDx=0;exitDy=0;entryX=1;entryY=0.5;entryDx=0;entryDy=0;fontSize=12;startSize=8;endSize=8;exitPerimeter=0;" edge="1" parent="WIyWlLk6GJQsqaUBKTNV-1" source="EWlRzlxdhO2FhHiECtLa-24" target="EPb7erDvm0e9K2WXAWxK-33">
          <mxGeometry relative="1" as="geometry" />
        </mxCell>
      </root>
    </mxGraphModel>
  </diagram>
</mxfile>
